HIERARCHY
ROOT joint_0
{
	OFFSET 0.000000 0.000000 0.000000
	CHANNELS 6 Xposition Yposition Zposition Zrotation Yrotation Xrotation 
	JOINT joint_1
	{
		OFFSET 4.520508 -1.939880 86.268921
		CHANNELS 3 Zrotation Yrotation Xrotation
		JOINT joint_2
		{
			OFFSET -4.459717 -0.438538 78.934082
			CHANNELS 3 Zrotation Yrotation Xrotation
			JOINT joint_3
			{
				OFFSET -5.197754 -0.781128 78.796997
				CHANNELS 3 Zrotation Yrotation Xrotation
				JOINT joint_4
				{
					OFFSET 2.952026 -3.710571 109.812988
					CHANNELS 3 Zrotation Yrotation Xrotation
					JOINT joint_5
					{
						OFFSET 24.716797 -5.488037 87.903931
						CHANNELS 3 Zrotation Yrotation Xrotation
						End Site
						{
							OFFSET 0.000000 0.000000 0.000000
						}
					}
				}
				JOINT joint_6
				{
					OFFSET -3.154419 -25.484680 60.934937
					CHANNELS 3 Zrotation Yrotation Xrotation
					JOINT joint_7
					{
						OFFSET -28.997192 -144.472229 -32.671997
						CHANNELS 3 Zrotation Yrotation Xrotation
						JOINT joint_8
						{
							OFFSET 19.867676 -18.614380 -249.897949
							CHANNELS 3 Zrotation Yrotation Xrotation
							JOINT joint_9
							{
								OFFSET 5.281982 -13.816650 -264.993042
								CHANNELS 3 Zrotation Yrotation Xrotation
								End Site
								{
									OFFSET 0.000000 0.000000 0.000000
								}
							}
						}
					}
				}
				JOINT joint_10
				{
					OFFSET 6.494995 21.336792 62.257935
					CHANNELS 3 Zrotation Yrotation Xrotation
					JOINT joint_11
					{
						OFFSET 31.106567 145.200745 -27.007935
						CHANNELS 3 Zrotation Yrotation Xrotation
						JOINT joint_12
						{
							OFFSET 29.119141 24.684326 -248.460083
							CHANNELS 3 Zrotation Yrotation Xrotation
							JOINT joint_13
							{
								OFFSET 21.220093 31.248413 -262.703979
								CHANNELS 3 Zrotation Yrotation Xrotation
								End Site
								{
									OFFSET 0.000000 0.000000 0.000000
								}
							}
						}
					}
				}
			}
		}
	}
	JOINT joint_14
	{
		OFFSET -15.458496 -88.861694 -109.593018
		CHANNELS 3 Zrotation Yrotation Xrotation
		JOINT joint_15
		{
			OFFSET -6.193359 6.837952 -506.710999
			CHANNELS 3 Zrotation Yrotation Xrotation
			JOINT joint_16
			{
				OFFSET -35.096680 13.289795 -435.677025
				CHANNELS 3 Zrotation Yrotation Xrotation
				JOINT joint_17
				{
					OFFSET 158.491211 -33.916565 -71.771002
					CHANNELS 3 Zrotation Yrotation Xrotation
					End Site
					{
						OFFSET 0.000000 0.000000 0.000000
					}
				}
			}
		}
	}
	JOINT joint_18
	{
		OFFSET 23.116943 86.574158 -110.082031
		CHANNELS 3 Zrotation Yrotation Xrotation
		JOINT joint_19
		{
			OFFSET -6.125854 -0.283569 -506.757019
			CHANNELS 3 Zrotation Yrotation Xrotation
			JOINT joint_20
			{
				OFFSET -63.240234 11.589966 -432.537994
				CHANNELS 3 Zrotation Yrotation Xrotation
				JOINT joint_21
				{
					OFFSET 156.074219 -41.487305 -73.077999
					CHANNELS 3 Zrotation Yrotation Xrotation
					End Site
					{
						OFFSET 0.000000 0.000000 0.000000
					}
				}
			}
		}
	}
}
MOTION
Frames: 15
Frame Time: 0.016667
-463.920868 821.628113 1140.626953 14.783512 1.063309 0.684304 -0.350116 -2.322006 -1.643820 -0.209919 0.456585 0.331191 -0.256656 -0.446512 -0.238803 -0.384081 0.457492 1.449563 0.000000 0.000000 0.000000 -0.186183 0.644212 0.132338 0.106214 0.441162 0.855012 -0.145786 1.538563 -1.152376 0.000000 0.000000 0.000000 0.666638 0.388547 0.552513 -0.182776 0.564693 -0.980481 0.388142 1.128114 3.354669 0.000000 0.000000 0.000000 -0.018829 -0.407066 -1.666464 -0.024432 -0.510444 -0.214021 -0.017948 0.700877 0.141912 0.000000 0.000000 0.000000 0.292027 0.503587 0.524684 0.307933 -0.752552 -0.021744 0.312916 -0.120887 0.114403 0.000000 0.000000 0.000000 
-463.896973 821.701843 1140.625977 14.780819 1.069273 0.682326 -0.345931 -2.302104 -1.649734 -0.205750 0.450511 0.331766 -0.252443 -0.442717 -0.239125 -0.386766 0.452075 1.457651 0.000000 0.000000 0.000000 -0.204040 0.634981 0.143733 0.104998 0.433774 0.838306 -0.146488 1.548205 -1.149228 0.000000 0.000000 0.000000 0.654004 0.374721 0.558819 -0.184344 0.556200 -0.989262 0.386412 1.117293 3.348647 0.000000 0.000000 0.000000 -0.017092 -0.414135 -1.668470 -0.022512 -0.504903 -0.213622 -0.016261 0.698103 0.142085 0.000000 0.000000 0.000000 0.293243 0.494392 0.521189 0.308901 -0.740925 -0.017916 0.313980 -0.127680 0.113098 0.000000 0.000000 0.000000 
-463.865997 821.776062 1140.625000 14.776785 1.075290 0.680809 -0.342192 -2.288741 -1.658191 -0.201552 0.447619 0.335316 -0.248558 -0.439949 -0.241417 -0.388960 0.449090 1.464552 0.000000 0.000000 0.000000 -0.217827 0.628700 0.151852 0.104512 0.427763 0.829998 -0.147215 1.557265 -1.148572 0.000000 0.000000 0.000000 0.643061 0.364087 0.563736 -0.185222 0.549407 -0.993416 0.384838 1.107743 3.342545 0.000000 0.000000 0.000000 -0.014997 -0.420584 -1.671074 -0.020255 -0.500178 -0.213180 -0.014220 0.695402 0.142434 0.000000 0.000000 0.000000 0.294959 0.486836 0.517785 0.310409 -0.731770 -0.015178 0.315488 -0.133948 0.112140 0.000000 0.000000 0.000000 
-463.815063 821.852600 1140.624023 14.769443 1.081005 0.680247 -0.339257 -2.283993 -1.668885 -0.197884 0.447525 0.338171 -0.245170 -0.440287 -0.242873 -0.390195 0.452430 1.469446 0.000000 0.000000 0.000000 -0.222223 0.628890 0.151951 0.105349 0.425230 0.837806 -0.148097 1.566571 -1.152352 0.000000 0.000000 0.000000 0.637565 0.360021 0.564320 -0.185026 0.545768 -0.989904 0.383418 1.099079 3.337232 0.000000 0.000000 0.000000 -0.011979 -0.424625 -1.675368 -0.017166 -0.497808 -0.211379 -0.011204 0.692307 0.143142 0.000000 0.000000 0.000000 0.297259 0.483390 0.514411 0.312584 -0.727346 -0.014227 0.317535 -0.138541 0.111879 0.000000 0.000000 0.000000 
-463.758820 821.928223 1140.624023 14.760951 1.086440 0.680217 -0.336839 -2.282286 -1.681453 -0.194493 0.445895 0.342252 -0.242201 -0.439899 -0.245746 -0.391062 0.458695 1.473672 0.000000 0.000000 0.000000 -0.221961 0.631763 0.149392 0.106824 0.424158 0.853646 -0.149037 1.575931 -1.157739 0.000000 0.000000 0.000000 0.634251 0.358932 0.563929 -0.184145 0.543617 -0.981798 0.382174 1.091829 3.331780 0.000000 0.000000 0.000000 -0.009009 -0.427858 -1.680350 -0.014155 -0.496208 -0.209130 -0.008200 0.689435 0.143892 0.000000 0.000000 0.000000 0.300137 0.481733 0.511157 0.315382 -0.725296 -0.014581 0.320061 -0.141847 0.112183 0.000000 0.000000 0.000000 
-463.717865 822.003662 1140.623047 14.752999 1.090690 0.680078 -0.334815 -2.279701 -1.691001 -0.191773 0.444279 0.345046 -0.239765 -0.438532 -0.247882 -0.391471 0.464949 1.476321 0.000000 0.000000 0.000000 -0.223696 0.633244 0.147742 0.107867 0.422432 0.864872 -0.149403 1.579721 -1.159864 0.000000 0.000000 0.000000 0.630706 0.357650 0.562415 -0.183609 0.541316 -0.975067 0.381772 1.089008 3.331219 0.000000 0.000000 0.000000 -0.006037 -0.430337 -1.685092 -0.011147 -0.494925 -0.207812 -0.005268 0.686375 0.144569 0.000000 0.000000 0.000000 0.302865 0.479181 0.507350 0.317994 -0.720565 -0.014052 0.322441 -0.146060 0.112180 0.000000 0.000000 0.000000 
-463.700226 822.078064 1140.619019 14.746340 1.093429 0.680202 -0.333553 -2.274147 -1.698152 -0.189974 0.443650 0.348069 -0.238292 -0.438096 -0.250190 -0.391514 0.472447 1.477940 0.000000 0.000000 0.000000 -0.227698 0.632512 0.149279 0.107849 0.420821 0.866152 -0.148660 1.572963 -1.154635 0.000000 0.000000 0.000000 0.626236 0.355320 0.560792 -0.183912 0.538880 -0.972539 0.382875 1.093695 3.340104 0.000000 0.000000 0.000000 -0.003671 -0.431452 -1.689993 -0.008764 -0.495130 -0.207672 -0.003000 0.682531 0.144777 0.000000 0.000000 0.000000 0.305500 0.474418 0.502257 0.320431 -0.710711 -0.012169 0.324663 -0.151385 0.111807 0.000000 0.000000 0.000000 
-463.698669 822.151062 1140.614014 14.740558 1.094917 0.680381 -0.332958 -2.266833 -1.702592 -0.189159 0.442068 0.349082 -0.237519 -0.436191 -0.250428 -0.390696 0.479424 1.476468 0.000000 0.000000 0.000000 -0.232728 0.630334 0.151227 0.107391 0.418596 0.862943 -0.147337 1.560560 -1.145964 0.000000 0.000000 0.000000 0.621492 0.352864 0.557657 -0.184473 0.536191 -0.970884 0.384757 1.102557 3.353235 0.000000 0.000000 0.000000 -0.001721 -0.432041 -1.694630 -0.006791 -0.495186 -0.208559 -0.001217 0.678493 0.144722 0.000000 0.000000 0.000000 0.308164 0.468757 0.496647 0.322866 -0.698154 -0.009771 0.326861 -0.157532 0.111204 0.000000 0.000000 0.000000 
-463.708069 822.222717 1140.609985 14.735466 1.094562 0.680084 -0.332910 -2.257953 -1.704625 -0.189076 0.438791 0.349926 -0.237429 -0.432315 -0.250738 -0.389565 0.485595 1.473769 0.000000 0.000000 0.000000 -0.237673 0.627085 0.153313 0.107219 0.415170 0.860349 -0.146309 1.550587 -1.140855 0.000000 0.000000 0.000000 0.617827 0.350830 0.555781 -0.184756 0.534070 -0.969367 0.385966 1.108679 3.360798 0.000000 0.000000 0.000000 0.000107 -0.432866 -1.698655 -0.004884 -0.491837 -0.209579 0.000394 0.674624 0.144626 0.000000 0.000000 0.000000 0.310551 0.464641 0.491362 0.325046 -0.686040 -0.007091 0.328871 -0.163086 0.110672 0.000000 0.000000 0.000000 
-463.728210 822.291992 1140.605957 14.729916 1.091089 0.678982 -0.333767 -2.246943 -1.702955 -0.190218 0.436316 0.349355 -0.238468 -0.430346 -0.250518 -0.387688 0.494152 1.468965 0.000000 0.000000 0.000000 -0.241082 0.623589 0.154525 0.107736 0.410870 0.861060 -0.145896 1.545502 -1.143642 0.000000 0.000000 0.000000 0.616949 0.350650 0.556074 -0.184199 0.533588 -0.966438 0.385838 1.109496 3.356730 0.000000 0.000000 0.000000 0.002181 -0.433723 -1.701313 -0.002639 -0.482983 -0.211332 0.002104 0.670266 0.144470 0.000000 0.000000 0.000000 0.312740 0.464284 0.487082 0.327098 -0.675653 -0.004496 0.330817 -0.168952 0.110027 0.000000 0.000000 0.000000 
-463.758362 822.360168 1140.604004 14.724736 1.085969 0.677665 -0.334708 -2.236231 -1.699510 -0.191544 0.435311 0.348533 -0.239623 -0.428857 -0.249197 -0.385209 0.503327 1.462217 0.000000 0.000000 0.000000 -0.245770 0.619760 0.155159 0.108545 0.405644 0.862426 -0.145779 1.542778 -1.150284 0.000000 0.000000 0.000000 0.615826 0.351414 0.556168 -0.183207 0.533940 -0.962633 0.385076 1.107904 3.346945 0.000000 0.000000 0.000000 0.004396 -0.435217 -1.703691 -0.000182 -0.470176 -0.213277 0.003885 0.665674 0.144296 0.000000 0.000000 0.000000 0.314514 0.465424 0.482918 0.328755 -0.666001 -0.001766 0.332427 -0.173596 0.109549 0.000000 0.000000 0.000000 
-463.798889 822.429138 1140.602051 14.720182 1.081049 0.675682 -0.335364 -2.225230 -1.694028 -0.192796 0.433478 0.346546 -0.240616 -0.427581 -0.247763 -0.383273 0.511873 1.457224 0.000000 0.000000 0.000000 -0.249872 0.616430 0.155641 0.109197 0.401047 0.863825 -0.145700 1.541038 -1.154872 0.000000 0.000000 0.000000 0.613773 0.352632 0.557081 -0.182444 0.535547 -0.961119 0.384265 1.105646 3.337837 0.000000 0.000000 0.000000 0.006406 -0.437841 -1.705834 0.002088 -0.456750 -0.214252 0.005556 0.661837 0.144235 0.000000 0.000000 0.000000 0.316355 0.465979 0.479333 0.330483 -0.656837 0.000848 0.334102 -0.177927 0.109185 0.000000 0.000000 0.000000 
-463.846771 822.503662 1140.599976 14.715870 1.077344 0.673432 -0.336951 -2.217521 -1.687116 -0.195042 0.433305 0.344129 -0.242534 -0.426111 -0.245416 -0.381984 0.517984 1.453974 0.000000 0.000000 0.000000 -0.248751 0.613098 0.154995 0.109325 0.397875 0.863398 -0.145525 1.539809 -1.153924 0.000000 0.000000 0.000000 0.615547 0.354514 0.559284 -0.182579 0.538630 -0.966114 0.383522 1.102209 3.332603 0.000000 0.000000 0.000000 0.008418 -0.442643 -1.708909 0.004396 -0.442291 -0.213229 0.007388 0.657578 0.144157 0.000000 0.000000 0.000000 0.318139 0.465028 0.475498 0.332128 -0.648249 0.003545 0.335723 -0.181076 0.109109 0.000000 0.000000 0.000000 
-463.905060 822.579041 1140.598999 14.712489 1.073580 0.670614 -0.338670 -2.209051 -1.678278 -0.197633 0.431750 0.340569 -0.244708 -0.424371 -0.243051 -0.381407 0.523879 1.453159 0.000000 0.000000 0.000000 -0.245015 0.610055 0.154854 0.109182 0.395903 0.862180 -0.145304 1.538677 -1.150455 0.000000 0.000000 0.000000 0.617252 0.356830 0.562033 -0.182931 0.542646 -0.972984 0.382805 1.098489 3.328453 0.000000 0.000000 0.000000 0.010239 -0.448313 -1.711854 0.006531 -0.427095 -0.211438 0.009107 0.654148 0.144204 0.000000 0.000000 0.000000 0.319758 0.463760 0.472112 0.333616 -0.640230 0.006016 0.337175 -0.183277 0.109207 0.000000 0.000000 0.000000 
-463.973480 822.649109 1140.598022 14.709795 1.070076 0.668184 -0.338433 -2.199469 -1.673264 -0.197874 0.429893 0.339779 -0.244789 -0.422778 -0.242092 -0.381610 0.527294 1.454534 0.000000 0.000000 0.000000 -0.244904 0.608297 0.154541 0.109343 0.393562 0.864653 -0.145236 1.538993 -1.147487 0.000000 0.000000 0.000000 0.614582 0.357964 0.563385 -0.183034 0.545381 -0.976799 0.382335 1.096257 3.325152 0.000000 0.000000 0.000000 0.011801 -0.453745 -1.714875 0.008370 -0.414409 -0.209898 0.010614 0.652367 0.144509 0.000000 0.000000 0.000000 0.321039 0.461671 0.468789 0.334763 -0.632654 0.008021 0.338258 -0.185093 0.109234 0.000000 0.000000 0.000000 
